<?xml version="1.0" encoding="UTF-8"?>
<svg id="Layer_1" data-name="Layer 1" xmlns="http://www.w3.org/2000/svg" viewBox="0 0 150.06 35.12">
  <defs>
    <style>
      .cls-1 {
        fill: none;
        stroke-width: 0px;
      }
    </style>
  </defs>
  <path class="cls-1" d="M1.51,27.2c.75.75,1.49,1.59,2.31,2.32,2.41,2.14,5.23,3.42,8.41,3.91,3.84.59,7.49-.02,10.87-1.93,4.41-2.51,7.2-6.26,8.08-11.27.81-4.6-.31-8.8-3.21-12.47-2.52-3.19-5.82-5.23-9.81-5.94C11.67.66,6.19,2.57,1.86,7.6c-.06.07-.13.14-.22.18,1.76-2.67,4.09-4.69,6.98-6.07C11.51.33,14.56-.22,17.74.08c8.8.81,15.59,7.95,15.96,16.74.37,8.78-5.74,16.43-14.39,18-4.23.77-8.25.06-11.98-2.1-2.39-1.38-4.34-3.25-5.82-5.51ZM22.16,5.05c-.09-.05-.19-.11-.28-.16-3.82-1.92-7.77-2.22-11.85-.93C4.52,5.72.54,10.69.05,16.42c-.29,3.37.57,6.44,2.51,9.19,3.85,5.45,10.95,7.7,17.26,5.49.8-.28,1.58-.65,2.37-.98-.06-.09-.08-.1-.1-.09-.1.04-.19.09-.29.13-2.66,1.22-5.43,1.55-8.28.94-5.94-1.28-10.34-6.39-10.73-12.46-.26-3.98.85-7.56,3.6-10.48,3.78-4.03,8.41-5.29,13.76-3.82.69.19,1.34.5,2.01.75,0,0,0-.01.01-.02ZM9.83,27c.05.04.11.09.16.13,1.65,1.15,3.48,1.82,5.49,1.93,3.26.19,6.1-.85,8.44-3.13,3.86-3.76,4.64-9.59,1.95-14.28-2.84-4.96-8.88-6.99-14.04-4.7-.7.31-1.35.73-2.03,1.1.02.04.04.07.06.11.08-.04.16-.07.25-.11,1.3-.59,2.66-.95,4.08-1.01,3.19-.15,6.03.77,8.36,2.98,2.92,2.77,4.01,6.16,3.01,10.09-1.39,5.47-7.05,8.84-12.73,7.79-1.01-.19-1.99-.56-2.98-.85,0-.02,0-.03,0-.05ZM35.34,15.88v.83c1.84.16,2.12.32,2.12,2.39v9.44c0,2.02-.18,2.22-2.12,2.38v.83h6.36c2.86,0,5.2-.63,7.02-2.01,1.88-1.42,3.05-3.62,3.05-6.45,0-2.42-.93-4.13-2.15-5.29-1.55-1.46-3.8-2.12-7.03-2.12h-7.25ZM40.4,18.55c0-.79.07-1.16.29-1.35.18-.16.66-.34,1.63-.34,1.64,0,2.96.32,4.02,1.23,1.4,1.09,2.13,3.12,2.13,5.56,0,4.49-2.02,7.04-5.7,7.04-1.8,0-2.36-.56-2.36-2.33v-9.8ZM53.64,23.88c0,4.67,3.5,8.23,8.31,8.23s8.23-3.27,8.23-8.49c0-4.83-3.7-8.09-8.1-8.09-5.42,0-8.44,4.1-8.44,8.34ZM66.82,24.31c0,4.55-1.95,6.78-4.49,6.78-3.36,0-5.29-3.47-5.29-7.74s2.06-6.8,4.64-6.8c2.96,0,5.15,2.82,5.15,7.76ZM72.05,23.88c0,4.67,3.5,8.23,8.31,8.23s8.23-3.27,8.23-8.49c0-4.83-3.7-8.09-8.1-8.09-5.42,0-8.44,4.1-8.44,8.34ZM85.22,24.31c0,4.55-1.95,6.78-4.49,6.78-3.36,0-5.29-3.47-5.29-7.74s2.06-6.8,4.64-6.8c2.96,0,5.15,2.82,5.15,7.76ZM106.54,27.28c-.41.97-1.01,1.99-1.52,2.53-.58.64-.94.88-2.28.88-.12,0-1.46,0-1.5-.02-1.36-.02-1.46-.54-1.46-1.93v-9.63c0-2.07.25-2.21,2.17-2.39v-.83h-7.24v.83c1.87.16,2.12.33,2.12,2.39v9.44c0,2.06-.2,2.21-2.37,2.38v.83h11.84c.23-.69.93-3.26,1.11-4.21l-.87-.26ZM120.27,27.48c-.37.8-.87,1.73-1.43,2.37-.54.65-.86.84-2.27.84h-1.92c-1.41-.02-1.63-.41-1.63-2.1v-4.43h2.48c1.54,0,1.73.28,2.1,2.07h.88v-5.3h-.88c-.34,1.71-.54,2.07-2.07,2.07h-2.5v-5.21c0-.79.08-.84.95-.84h1.84c1.32,0,1.73.16,2.15.75.36.47.72,1.3.94,2.13l.88-.12c-.1-1.44-.21-3.38-.24-3.88-.32.02-1.21.05-3.68.05h-7.77v.83c1.72.15,2,.29,2,2.4v9.44c0,2.03-.16,2.19-2.39,2.39v.81h12.39c.23-.7.9-3.41,1.03-4.06l-.84-.21ZM138.87,15.88h-6.03v.83c2,.12,2.45.57,2.52,1.64.07.84.11,1.73.11,3.91v4.95l-9.67-11.33h-4.38v.83c1.08.11,1.65.21,2.09.82.46.6.5,1.09.5,1.85v5.94c0,2.16-.05,3.11-.14,3.96-.13,1.16-.73,1.53-2.17,1.65v.83h6.01v-.83c-1.79-.11-2.34-.61-2.42-1.74-.06-.71-.12-1.71-.12-3.86v-5.72l10.27,12.4h1.21v-9.74c0-2.18.06-3.07.12-3.97.07-1.11.55-1.4,2.07-1.59v-.83ZM149.45,19.6c-.2-1.56-.34-2.72-.44-3.62-.53-.08-1.82-.45-3.4-.45-3.51,0-5.44,2.03-5.44,4.46s1.58,3.65,4.13,5.02c2.08,1.12,3.01,1.93,3.01,3.51s-.96,2.6-2.55,2.6c-2.44,0-3.71-2.47-4.2-4.04l-.88.21c.17,1.21.54,3.44.71,4.04,1.1.36,2.45.77,3.97.77,3.37,0,5.7-2.05,5.7-4.82,0-2.38-1.52-3.6-4.25-4.97-2.11-1.07-3.07-1.89-3.07-3.35,0-1.33.83-2.47,2.42-2.47,2.26,0,2.95,1.71,3.41,3.29l.87-.19Z"/>
</svg>