<?xml version="1.0" encoding="UTF-8"?>
<svg id="Layer_1" data-name="Layer 1" xmlns="http://www.w3.org/2000/svg" viewBox="0 0 150.06 35.12">
  <defs>
    <style>
      .cls-1 {
        stroke-width: 0px;
        fill: #afafaf;
      }
    </style>
  </defs>
  <path class="cls-1" d="M1.51,27.2c.75.75,1.49,1.59,2.31,2.32,2.41,2.14,5.23,3.42,8.41,3.91,3.84.59,7.49-.02,10.87-1.93,4.41-2.51,7.2-6.26,8.08-11.27.81-4.6-.31-8.8-3.21-12.47-2.52-3.19-5.82-5.23-9.81-5.94C11.67.66,6.19,2.57,1.86,7.6c-.06.07-.13.14-.22.18,1.76-2.67,4.09-4.69,6.98-6.07C11.51.33,14.56-.22,17.74.08c8.8.81,15.59,7.95,15.96,16.74.37,8.78-5.74,16.43-14.39,18-4.23.77-8.25.06-11.98-2.1-2.39-1.38-4.34-3.25-5.82-5.51ZM22.16,5.05c-.09-.05-.19-.11-.28-.16-3.82-1.92-7.77-2.22-11.85-.93C4.52,5.72.54,10.69.05,16.42c-.29,3.37.57,6.44,2.51,9.19,3.85,5.45,10.95,7.7,17.26,5.49.8-.28,1.58-.65,2.37-.98-.06-.09-.08-.1-.1-.09-.1.04-.19.09-.29.13-2.66,1.22-5.43,1.55-8.28.94-5.94-1.28-10.34-6.39-10.73-12.46-.26-3.98.85-7.56,3.6-10.48,3.78-4.03,8.41-5.29,13.76-3.82.69.19,1.34.5,2.01.75,0,0,0-.01.01-.02ZM9.83,27c.05.04.11.09.16.13,1.65,1.15,3.48,1.82,5.49,1.93,3.26.19,6.1-.85,8.44-3.13,3.86-3.76,4.64-9.59,1.95-14.28-2.84-4.96-8.88-6.99-14.04-4.7-.7.31-1.35.73-2.03,1.1.02.04.04.07.06.11.08-.04.16-.07.25-.11,1.3-.59,2.66-.95,4.08-1.01,3.19-.15,6.03.77,8.36,2.98,2.92,2.77,4.01,6.16,3.01,10.09-1.39,5.47-7.05,8.84-12.73,7.79-1.01-.19-1.99-.56-2.98-.85,0-.02,0-.03,0-.05ZM43.69,23.16c1.22,0,2.29-.23,3.22-.7.93-.46,1.65-1.11,2.18-1.95.52-.84.78-1.82.78-2.95s-.26-2.11-.78-2.95c-.52-.84-1.25-1.49-2.18-1.95-.93-.46-2-.7-3.22-.7h-5.09v11.2h5.09ZM41.21,14.07h2.35c.75,0,1.39.14,1.94.42.55.28.98.69,1.28,1.21.3.52.46,1.14.46,1.86s-.15,1.32-.46,1.85c-.3.53-.73.93-1.28,1.22-.55.28-1.2.42-1.94.42h-2.35v-6.98ZM61.29,22.93c.74-.28,1.39-.69,1.94-1.21.55-.52.98-1.14,1.29-1.85.3-.71.46-1.48.46-2.31s-.15-1.62-.46-2.32c-.3-.7-.73-1.32-1.29-1.84-.56-.52-1.2-.93-1.94-1.21s-1.55-.42-2.44-.42-1.7.14-2.44.43c-.74.29-1.39.69-1.94,1.22-.55.52-.98,1.13-1.29,1.83-.3.7-.46,1.47-.46,2.31s.15,1.6.46,2.3c.3.7.73,1.32,1.29,1.84.55.52,1.21.93,1.95,1.22.75.29,1.56.43,2.45.43s1.68-.14,2.42-.42ZM57.45,20.89c-.43-.18-.8-.43-1.11-.75-.31-.33-.56-.7-.74-1.14-.18-.43-.26-.91-.26-1.45s.09-1.02.26-1.45c.18-.43.42-.81.74-1.14.31-.33.69-.58,1.11-.75.43-.18.89-.26,1.39-.26s.96.09,1.38.26c.42.18.79.43,1.11.75.32.33.57.7.74,1.14.18.43.26.91.26,1.45s-.09,1.02-.26,1.45c-.18.43-.42.81-.74,1.14-.32.33-.69.58-1.11.75-.42.18-.88.26-1.38.26s-.97-.09-1.39-.26ZM76.39,22.93c.74-.28,1.39-.69,1.94-1.21.55-.52.98-1.14,1.29-1.85.3-.71.46-1.48.46-2.31s-.15-1.62-.46-2.32c-.3-.7-.73-1.32-1.29-1.84-.56-.52-1.2-.93-1.94-1.21s-1.55-.42-2.44-.42-1.7.14-2.44.43c-.74.29-1.39.69-1.94,1.22-.55.52-.98,1.13-1.29,1.83-.3.7-.46,1.47-.46,2.31s.15,1.6.46,2.3c.3.7.73,1.32,1.29,1.84.55.52,1.21.93,1.95,1.22.75.29,1.56.43,2.45.43s1.68-.14,2.42-.42ZM72.56,20.89c-.43-.18-.8-.43-1.11-.75-.31-.33-.56-.7-.74-1.14-.18-.43-.26-.91-.26-1.45s.09-1.02.26-1.45c.18-.43.42-.81.74-1.14.31-.33.69-.58,1.11-.75.43-.18.89-.26,1.39-.26s.96.09,1.38.26c.42.18.79.43,1.11.75.32.33.57.7.74,1.14.18.43.26.91.26,1.45s-.09,1.02-.26,1.45c-.18.43-.42.81-.74,1.14-.32.33-.69.58-1.11.75-.42.18-.88.26-1.38.26s-.97-.09-1.39-.26ZM97.95,23.16v-2.11h-5.58v-9.09h-2.61v11.2h8.19ZM103.6,14.04h5.89v-2.08h-8.46v11.2h8.67v-2.08h-6.1v-7.04ZM103.41,18.49h5.39v-2.03h-5.39v2.03ZM115.92,23.16v-8.06h-1.04l6.61,8.06h2.14v-11.2h-2.56v8.06h1.04l-6.61-8.06h-2.14v11.2h2.56ZM134.22,22.87c.7-.32,1.23-.74,1.58-1.26.35-.52.52-1.1.52-1.73,0-.58-.12-1.06-.36-1.45-.24-.39-.55-.7-.94-.93-.38-.23-.81-.42-1.26-.57-.46-.15-.92-.27-1.39-.38-.47-.1-.9-.2-1.28-.3-.38-.1-.69-.24-.93-.42-.23-.18-.35-.42-.35-.72,0-.23.07-.45.22-.64s.37-.34.68-.46c.31-.11.72-.17,1.23-.17s1,.07,1.54.22c.53.14,1.05.36,1.55.65l.82-1.95c-.51-.32-1.11-.57-1.8-.74-.69-.17-1.38-.26-2.09-.26-1.06,0-1.93.16-2.63.47s-1.22.74-1.56,1.26c-.34.53-.51,1.11-.51,1.75,0,.59.11,1.07.34,1.46.23.39.54.7.93.94.39.24.82.43,1.28.58.46.14.92.27,1.38.37.46.1.88.21,1.27.32.39.11.7.26.94.43.23.18.35.41.35.71,0,.23-.07.44-.22.62-.15.18-.38.32-.7.42-.31.11-.73.16-1.24.16-.67,0-1.34-.11-2-.33-.66-.22-1.23-.5-1.7-.84l-.88,1.95c.5.38,1.17.7,1.99.94.83.24,1.69.36,2.58.36,1.06,0,1.94-.16,2.64-.48Z"/>
</svg>